<svg width="48" height="48" viewBox="0 0 48 48" fill="none" xmlns="http://www.w3.org/2000/svg">
<path fill-rule="evenodd" clip-rule="evenodd" d="M6 24C6 22.8954 6.89543 22 8 22H40C41.1046 22 42 22.8954 42 24C42 25.1046 41.1046 26 40 26H8C6.89543 26 6 25.1046 6 24Z" fill="black"/>
<path fill-rule="evenodd" clip-rule="evenodd" d="M17.4142 14.5858C18.1953 15.3668 18.1953 16.6332 17.4142 17.4142L10.8284 24L17.4142 30.5858C18.1953 31.3668 18.1953 32.6332 17.4142 33.4142C16.6332 34.1953 15.3668 34.1953 14.5858 33.4142L6.58579 25.4142C5.80474 24.6332 5.80474 23.3668 6.58579 22.5858L14.5858 14.5858C15.3668 13.8047 16.6332 13.8047 17.4142 14.5858Z" fill="black"/>
</svg>
