<svg width="24" height="24" viewBox="0 0 24 24" fill="none" xmlns="http://www.w3.org/2000/svg">
<path fill-rule="evenodd" clip-rule="evenodd" d="M9 22C9 23.1046 10.3431 24 12 24C13.6569 24 15 23.1046 15 22H9Z" fill="black"/>
<path fill-rule="evenodd" clip-rule="evenodd" d="M18.5 11V17.5H14.2678L16.7678 20H18.5H21V17.5V11C21 6.02944 16.9706 2 12 2C8.42165 2 5.33106 4.08833 3.88048 7.11272L5.80241 9.03465C6.63541 6.40546 9.09518 4.5 12 4.5C15.5899 4.5 18.5 7.41015 18.5 11ZM10.7322 17.5H5.5V12.2678L3.07386 9.84162C3.02513 10.2209 3 10.6075 3 11V17.5V20H5.5H13.2322L10.7322 17.5Z" fill="black"/>
<mask id="path-3-inside-1_4_1461" fill="white">
<path fill-rule="evenodd" clip-rule="evenodd" d="M10.7322 17.5H2.25C1.55964 17.5 1 18.0596 1 18.75C1 19.4404 1.55964 20 2.25 20H13.2322L10.7322 17.5ZM16.7678 20H21.75C22.4404 20 23 19.4404 23 18.75C23 18.0596 22.4404 17.5 21.75 17.5H14.2678L16.7678 20Z"/>
</mask>
<path fill-rule="evenodd" clip-rule="evenodd" d="M10.7322 17.5H2.25C1.55964 17.5 1 18.0596 1 18.75C1 19.4404 1.55964 20 2.25 20H13.2322L10.7322 17.5ZM16.7678 20H21.75C22.4404 20 23 19.4404 23 18.75C23 18.0596 22.4404 17.5 21.75 17.5H14.2678L16.7678 20Z" fill="black"/>
<path d="M10.7322 17.5L12.8536 15.3787L11.9749 14.5H10.7322V17.5ZM13.2322 20V23H20.4749L15.3536 17.8787L13.2322 20ZM16.7678 20L14.6464 22.1213L15.5251 23H16.7678V20ZM14.2678 17.5V14.5H7.02513L12.1464 19.6213L14.2678 17.5ZM2.25 20.5H10.7322V14.5H2.25V20.5ZM4 18.75C4 19.7165 3.2165 20.5 2.25 20.5V14.5C-0.0972103 14.5 -2 16.4028 -2 18.75H4ZM2.25 17C3.2165 17 4 17.7835 4 18.75H-2C-2 21.0972 -0.0972097 23 2.25 23V17ZM13.2322 17H2.25V23H13.2322V17ZM15.3536 17.8787L12.8536 15.3787L8.61091 19.6213L11.1109 22.1213L15.3536 17.8787ZM21.75 17H16.7678V23H21.75V17ZM20 18.75C20 17.7835 20.7835 17 21.75 17V23C24.0972 23 26 21.0972 26 18.75H20ZM21.75 20.5C20.7835 20.5 20 19.7165 20 18.75H26C26 16.4028 24.0972 14.5 21.75 14.5V20.5ZM14.2678 20.5H21.75V14.5H14.2678V20.5ZM12.1464 19.6213L14.6464 22.1213L18.8891 17.8787L16.3891 15.3787L12.1464 19.6213Z" fill="black" mask="url(#path-3-inside-1_4_1461)"/>
<path d="M12 6V2" stroke="black" stroke-width="2.5" stroke-linecap="round"/>
<path d="M2 4L20 22" stroke="black" stroke-width="2.5" stroke-linecap="round"/>
<path d="M2 4L20 22" stroke="black" stroke-width="2.5" stroke-linecap="round"/>
<path d="M2 4L20 22" stroke="black" stroke-width="2.5" stroke-linecap="round"/>
<path d="M2 4L20 22" stroke="black" stroke-width="2.5" stroke-linecap="round"/>
</svg>
