<svg width="48" height="48" viewBox="0 0 48 48" fill="none" xmlns="http://www.w3.org/2000/svg">
<path fill-rule="evenodd" clip-rule="evenodd" d="M8.49998 3H14.5V5.94139H33V3H39V5.94139H41.5C43.7091 5.94139 45.5 7.73225 45.5 9.94139V41.9414C45.5 44.1505 43.7091 45.9414 41.5 45.9414H6.5C4.29086 45.9414 2.5 44.1505 2.5 41.9414V9.94139C2.5 7.73225 4.29086 5.94139 6.5 5.94139H8.49998V3ZM6.5 41.9414V17.9294H41.5V41.9414H6.5ZM33.3219 26.7004C34.174 25.9975 34.295 24.737 33.5921 23.8849C32.8893 23.0328 31.6287 22.9118 30.7766 23.6147L21.6206 31.1672L17.5896 26.7338C16.8465 25.9165 15.5816 25.8564 14.7644 26.5995C13.9471 27.3426 13.887 28.6075 14.6301 29.4247L21.2254 36.6784L33.3219 26.7004Z" fill="black"/>
</svg>
