<svg width="48" height="48" viewBox="0 0 48 48" fill="none" xmlns="http://www.w3.org/2000/svg">
<path fill-rule="evenodd" clip-rule="evenodd" d="M24 41C33.3888 41 41 33.3888 41 24C41 14.6112 33.3888 7 24 7C14.6112 7 7 14.6112 7 24C7 33.3888 14.6112 41 24 41ZM24 45C35.598 45 45 35.598 45 24C45 12.402 35.598 3 24 3C12.402 3 3 12.402 3 24C3 35.598 12.402 45 24 45Z" fill="#FF4C4C"/>
<path d="M23.9445 15H23.7557C22.5922 15 21.6743 15.9893 21.7613 17.1496L22.641 28.8782C22.6884 29.5109 23.2156 30 23.8501 30C24.4846 30 25.0118 29.5109 25.0592 28.8782L25.9389 17.1496C26.0259 15.9893 25.108 15 23.9445 15Z" fill="#FF4C4C"/>
<path d="M25.5 33C25.5 33.8284 24.8284 34.5 24 34.5C23.1716 34.5 22.5 33.8284 22.5 33C22.5 32.1716 23.1716 31.5 24 31.5C24.8284 31.5 25.5 32.1716 25.5 33Z" fill="#FF4C4C"/>
</svg>
