<svg width="48" height="48" viewBox="0 0 48 48" fill="none" xmlns="http://www.w3.org/2000/svg">
<path fill-rule="evenodd" clip-rule="evenodd" d="M30.5858 14.5858C31.3668 13.8047 32.6332 13.8047 33.4142 14.5858L41.4142 22.5858C42.1953 23.3668 42.1953 24.6332 41.4142 25.4142L33.4142 33.4142C32.6332 34.1953 31.3668 34.1953 30.5858 33.4142C29.8047 32.6332 29.8047 31.3668 30.5858 30.5858L37.1716 24L30.5858 17.4142C29.8047 16.6332 29.8047 15.3668 30.5858 14.5858Z" fill="black"/>
<path fill-rule="evenodd" clip-rule="evenodd" d="M6 24C6 22.8954 6.89543 22 8 22H40C41.1046 22 42 22.8954 42 24C42 25.1046 41.1046 26 40 26H8C6.89543 26 6 25.1046 6 24Z" fill="black"/>
</svg>
