<svg width="48" height="48" viewBox="0 0 48 48" fill="none" xmlns="http://www.w3.org/2000/svg">
<path fill-rule="evenodd" clip-rule="evenodd" d="M24 40C32.8366 40 40 32.8366 40 24C40 15.1634 32.8366 8 24 8C15.1634 8 8 15.1634 8 24C8 32.8366 15.1634 40 24 40ZM24 44C35.0457 44 44 35.0457 44 24C44 12.9543 35.0457 4 24 4C12.9543 4 4 12.9543 4 24C4 35.0457 12.9543 44 24 44ZM18 26.1243C19.3093 23.0922 21.0666 22.024 22.2036 21.7484C24.5467 21.1971 27.5099 21.9896 26.3728 26.4689C26.0169 27.8926 25.6797 29.3914 25.3475 30.8684C25.2294 31.3931 25.112 31.915 24.9946 32.4298C24.3744 35.0485 27.5443 33.9114 28.4402 32.1541C27.7511 34.8073 26.0972 35.841 23.9954 36.0132C21.6523 36.22 18.9303 35.4275 19.7573 31.9819C19.964 31.1894 20.2397 30.0179 20.5153 28.8463C20.7909 27.6749 21.0666 26.5033 21.2733 25.7108C22.0658 22.6098 19.3093 24.4015 18 26.1243ZM27.9578 18.1303C27.2342 19.6119 25.5804 20.301 24.2021 19.6808C22.8239 19.0261 22.2726 17.3033 22.9961 15.8217C23.7197 14.3401 25.3736 13.651 26.7519 14.2712C28.0957 14.8914 28.6469 16.6142 27.9578 18.1303Z" fill="black"/>
</svg>
