<svg width="48" height="48" viewBox="0 0 48 48" fill="none" xmlns="http://www.w3.org/2000/svg">
<g clip-path="url(#clip0_4_1184)">
<path d="M24.0864 4.95573C24.0842 5.93909 24.377 6.90097 24.928 7.71954C25.4789 8.53812 26.263 9.17652 27.1811 9.55388C28.0992 9.93123 29.1098 10.0306 30.085 9.83928C31.0602 9.64799 31.9561 9.17468 32.6591 8.47933C33.3621 7.78399 33.8406 6.8979 34.034 5.93332C34.2274 4.96875 34.127 3.96909 33.7455 3.06101C33.364 2.15293 32.7185 1.37729 31.891 0.832369C31.0634 0.287444 30.0909 -0.00223471 29.0967 1.29817e-05C27.7679 1.29817e-05 26.4935 0.522125 25.5539 1.4515C24.6143 2.38088 24.0864 3.64139 24.0864 4.95573Z" fill="black"/>
<path d="M35.4399 12.787C35.4399 13.6615 35.7022 14.5163 36.1934 15.2434C36.6846 15.9706 37.3827 16.5373 38.1995 16.8719C39.0163 17.2066 39.9151 17.2941 40.7823 17.1235C41.6494 16.9529 42.4459 16.5318 43.0711 15.9135C43.6963 15.2951 44.122 14.5073 44.2944 13.6496C44.4669 12.7919 44.3785 11.9029 44.0401 11.095C43.7018 10.287 43.1288 9.59647 42.3937 9.11063C41.6586 8.62479 40.7943 8.36548 39.9102 8.36548C38.7246 8.36548 37.5876 8.8313 36.7493 9.66049C35.911 10.4897 35.4399 11.6143 35.4399 12.787Z" fill="black"/>
<path d="M40.0249 25.6877C40.0249 26.4705 40.2597 27.2357 40.6997 27.8864C41.1396 28.5371 41.7649 29.0441 42.4963 29.3431C43.2276 29.6422 44.0323 29.7198 44.8084 29.5663C45.5844 29.4127 46.297 29.0349 46.8558 28.4806C47.4146 27.9262 47.7946 27.2204 47.9476 26.4523C48.1006 25.6843 48.0197 24.8886 47.7153 24.1661C47.4108 23.4435 46.8964 22.8265 46.2373 22.3933C45.5782 21.96 44.8039 21.7299 44.0124 21.7322C43.4878 21.7322 42.9684 21.8346 42.4838 22.0335C41.9993 22.2324 41.5592 22.524 41.1887 22.8914C40.8183 23.2589 40.5248 23.695 40.3251 24.1748C40.1254 24.6547 40.0234 25.1687 40.0249 25.6877Z" fill="black"/>
<path d="M36.1753 37.5996C36.1753 38.274 36.3775 38.9333 36.7563 39.494C37.1351 40.0548 37.6736 40.4918 38.3035 40.7499C38.9334 41.008 39.6266 41.0755 40.2953 40.944C40.964 40.8124 41.5783 40.4876 42.0605 40.0107C42.5426 39.5339 42.871 38.9263 43.004 38.2648C43.137 37.6034 43.0687 36.9178 42.8078 36.2947C42.5469 35.6716 42.105 35.139 41.5381 34.7644C40.9712 34.3897 40.3046 34.1897 39.6227 34.1897C38.7084 34.1897 37.8316 34.5489 37.1851 35.1884C36.5386 35.8279 36.1753 36.6952 36.1753 37.5996Z" fill="black"/>
<path d="M26.4883 45.1245C26.4883 45.6977 26.6601 46.2581 26.9821 46.7348C27.3041 47.2114 27.7618 47.5829 28.2972 47.8023C28.8327 48.0216 29.4219 48.079 29.9903 47.9672C30.5587 47.8554 31.0809 47.5793 31.4907 47.174C31.9005 46.7686 32.1796 46.2521 32.2927 45.6899C32.4057 45.1277 32.3477 44.5449 32.1259 44.0153C31.9041 43.4857 31.5285 43.033 31.0467 42.7145C30.5648 42.3961 29.9982 42.2261 29.4186 42.2261C28.6414 42.2261 27.8961 42.5314 27.3466 43.075C26.797 43.6185 26.4883 44.3558 26.4883 45.1245Z" fill="black"/>
<path d="M13.6978 45.1244C13.6978 45.628 13.8487 46.1202 14.1316 46.5389C14.4144 46.9576 14.8165 47.284 15.2868 47.4767C15.7572 47.6694 16.2747 47.7198 16.774 47.6215C17.2734 47.5233 17.732 47.2808 18.092 46.9248C18.452 46.5687 18.6972 46.115 18.7965 45.6211C18.8958 45.1272 18.8449 44.6153 18.65 44.1501C18.4552 43.6849 18.1253 43.2872 17.702 43.0075C17.2787 42.7277 16.7809 42.5784 16.2718 42.5784C15.5891 42.5784 14.9344 42.8466 14.4517 43.3241C13.9689 43.8016 13.6978 44.4492 13.6978 45.1244Z" fill="black"/>
<path d="M4.1597 36.7926C4.15742 37.2045 4.27881 37.6077 4.5085 37.9513C4.73819 38.2948 5.06584 38.5632 5.4499 38.7224C5.83395 38.8815 6.25713 38.9244 6.66582 38.8454C7.07451 38.7664 7.45028 38.5692 7.74553 38.2788C8.04079 37.9883 8.24224 37.6177 8.32432 37.2139C8.40639 36.8101 8.36538 36.3913 8.20655 36.0106C8.04773 35.6299 7.77823 35.3043 7.43215 35.0753C7.08608 34.8462 6.67907 34.7239 6.26266 34.7239C5.98704 34.7224 5.71381 34.7748 5.45874 34.8781C5.20366 34.9814 4.97179 35.1335 4.77636 35.3258C4.58093 35.518 4.42579 35.7466 4.31997 35.9983C4.21414 36.25 4.1597 36.52 4.1597 36.7926Z" fill="black"/>
<path d="M3.68456e-05 25.6993C3.68456e-05 26.0544 0.106544 26.4017 0.306051 26.697C0.505558 26.9923 0.789083 27.2225 1.12085 27.3584C1.45262 27.4943 1.81771 27.5299 2.16991 27.4606C2.52212 27.3913 2.84561 27.2203 3.09953 26.9691C3.35345 26.718 3.5264 26.398 3.59646 26.0496C3.66652 25.7012 3.63057 25.3401 3.49315 25.012C3.35572 24.6838 3.12303 24.4034 2.82445 24.206C2.52586 24.0087 2.17482 23.9034 1.81571 23.9034C1.57685 23.9018 1.34007 23.9473 1.1191 24.037C0.898123 24.1267 0.697295 24.259 0.528391 24.426C0.359486 24.5931 0.225828 24.7917 0.135124 25.0102C0.044419 25.2288 -0.00148947 25.463 3.68456e-05 25.6993Z" fill="black"/>
<path d="M3.62012 13.8671C3.62012 14.1549 3.70636 14.4361 3.86799 14.6754C4.02961 14.9147 4.25936 15.1011 4.52813 15.2113C4.7969 15.3214 5.0926 15.3502 5.37793 15.294C5.66326 15.2379 5.92537 15.0993 6.13108 14.8959C6.33679 14.6924 6.47692 14.4332 6.53367 14.151C6.59043 13.8687 6.56126 13.5762 6.44993 13.3104C6.3386 13.0445 6.15007 12.8173 5.90818 12.6574C5.66629 12.4976 5.38191 12.4122 5.09099 12.4122C4.70088 12.4122 4.32676 12.5655 4.05091 12.8384C3.77506 13.1112 3.62012 13.4813 3.62012 13.8671Z" fill="black"/>
<path d="M10.5488 5.24013C10.5466 5.85931 10.7303 6.46519 11.0766 6.98095C11.423 7.49671 11.9164 7.89912 12.4944 8.13711C13.0723 8.3751 13.7086 8.43794 14.3227 8.31769C14.9368 8.19745 15.5009 7.89954 15.9436 7.46172C16.3862 7.02389 16.6874 6.46588 16.809 5.85849C16.9306 5.25109 16.867 4.62168 16.6264 4.05006C16.3858 3.47845 15.9789 2.99039 15.4575 2.6478C14.9361 2.3052 14.3235 2.12351 13.6975 2.12575C12.8634 2.12875 12.0642 2.45783 11.4744 3.04124C10.8846 3.62465 10.5519 4.41507 10.5488 5.24013Z" fill="black"/>
</g>
<defs>
<clipPath id="clip0_4_1184">
<rect width="48" height="48" fill="white"/>
</clipPath>
</defs>
</svg>
