<svg width="24" height="24" viewBox="0 0 24 24" fill="none" xmlns="http://www.w3.org/2000/svg">
<mask id="path-1-inside-1_4_1425" fill="white">
<path fill-rule="evenodd" clip-rule="evenodd" d="M5 1.2002C2.23858 1.2002 0 3.43877 0 6.2002V15.2002C0 17.9616 2.23858 20.2002 5 20.2002H12.0918C12.8063 20.2002 13.4666 20.5814 13.8239 21.2002L13.9681 21.4501C14.7379 22.7834 16.6624 22.7834 17.4322 21.4501L17.7308 20.933C17.9926 20.4795 18.4764 20.2002 19 20.2002C21.7614 20.2002 24 17.9616 24 15.2002V6.2002C24 3.43877 21.7614 1.2002 19 1.2002H5Z"/>
</mask>
<path d="M17.7308 20.933L19.8959 22.183L17.7308 20.933ZM13.9681 21.4501L11.8031 22.7001L13.9681 21.4501ZM13.8239 21.2002L15.9889 19.9502L13.8239 21.2002ZM2.5 6.2002C2.5 4.81948 3.61929 3.7002 5 3.7002V-1.2998C0.857864 -1.2998 -2.5 2.05806 -2.5 6.2002H2.5ZM2.5 15.2002V6.2002H-2.5V15.2002H2.5ZM5 17.7002C3.61929 17.7002 2.5 16.5809 2.5 15.2002H-2.5C-2.5 19.3423 0.857864 22.7002 5 22.7002V17.7002ZM12.0918 17.7002H5V22.7002H12.0918V17.7002ZM16.1332 20.2001L15.9889 19.9502L11.6588 22.4502L11.8031 22.7001L16.1332 20.2001ZM15.5658 19.683L15.2672 20.2001L19.5973 22.7001L19.8959 22.183L15.5658 19.683ZM21.5 15.2002C21.5 16.5809 20.3807 17.7002 19 17.7002V22.7002C23.1421 22.7002 26.5 19.3423 26.5 15.2002H21.5ZM21.5 6.2002V15.2002H26.5V6.2002H21.5ZM19 3.7002C20.3807 3.7002 21.5 4.81948 21.5 6.2002H26.5C26.5 2.05806 23.1421 -1.2998 19 -1.2998V3.7002ZM5 3.7002H19V-1.2998H5V3.7002ZM19.8959 22.183C19.7111 22.503 19.3696 22.7002 19 22.7002V17.7002C17.5833 17.7002 16.2741 18.456 15.5658 19.683L19.8959 22.183ZM11.8031 22.7001C13.5351 25.7001 17.8653 25.7001 19.5973 22.7001L15.2672 20.2001C15.4596 19.8668 15.9408 19.8668 16.1332 20.2001L11.8031 22.7001ZM12.0918 22.7002C11.9132 22.7002 11.7481 22.6049 11.6588 22.4502L15.9889 19.9502C15.1851 18.5579 13.6995 17.7002 12.0918 17.7002V22.7002Z" fill="black" mask="url(#path-1-inside-1_4_1425)"/>
<path d="M8 7.5H18" stroke="black" stroke-width="2" stroke-linecap="round"/>
<path d="M5 11H16" stroke="black" stroke-width="2" stroke-linecap="round"/>
<path d="M8 14.5L18 14.5" stroke="black" stroke-width="2" stroke-linecap="round"/>
</svg>
