<svg width="48" height="48" viewBox="0 0 48 48" fill="none" xmlns="http://www.w3.org/2000/svg">
<path fill-rule="evenodd" clip-rule="evenodd" d="M13.2546 7.50941C16.679 5.22129 20.705 4 24.8235 4C30.3463 4 35.6428 6.19388 39.548 10.0991C43.4532 14.0042 45.6471 19.3008 45.6471 24.8235C45.6471 28.942 44.4258 32.9681 42.1377 36.3925C39.8496 39.8169 36.5974 42.4859 32.7924 44.062C28.9874 45.638 24.8005 46.0505 20.7611 45.247C16.7217 44.4435 13.0113 42.4602 10.0991 39.548C7.18686 36.6358 5.20361 32.9254 4.40013 28.886C3.59665 24.8466 4.00902 20.6597 5.58511 16.8547C7.16119 13.0497 9.83019 9.79752 13.2546 7.50941ZM24.8235 8C21.4962 8 18.2435 8.98669 15.4769 10.8353C12.7103 12.6839 10.554 15.3114 9.28062 18.3855C8.00729 21.4596 7.67413 24.8422 8.32327 28.1057C8.93743 31.1932 10.4048 34.0429 12.5537 36.3337V35.8855C12.5539 33.281 13.3825 30.744 14.9196 28.6415C15.7821 27.4618 16.8427 26.4533 18.0458 25.6556C17.5609 25.0675 17.1514 24.415 16.8308 23.7123C16.0135 21.9204 15.8218 19.906 16.2867 17.9922C16.7516 16.0784 17.846 14.3762 19.3943 13.159C20.9425 11.9418 22.8549 11.2801 24.8243 11.2801C26.7938 11.2801 28.7061 11.9418 30.2544 13.159C31.8027 14.3762 32.8971 16.0784 33.362 17.9922C33.8268 19.906 33.6352 21.9204 32.8178 23.7123C32.4973 24.415 32.0878 25.0675 31.6028 25.6556C32.806 26.4533 33.8665 27.4618 34.729 28.6415C36.2662 30.744 37.0948 33.2809 37.0949 35.8854V36.332C37.7227 35.6626 38.2974 34.94 38.8118 34.1702C40.6604 31.4036 41.6471 28.1509 41.6471 24.8235C41.6471 20.3617 39.8746 16.0825 36.7196 12.9275C33.5646 9.77246 29.2854 8 24.8235 8ZM33.0949 38.945V35.8856C33.0948 34.1299 32.5362 32.4197 31.5 31.0024C30.4638 29.585 29.0035 28.5341 27.3305 28.0014L24.8243 27.2036L22.3181 28.0014C20.6451 28.5341 19.1849 29.585 18.1486 31.0024C17.1124 32.4197 16.5538 34.1298 16.5537 35.8855V38.945C19.0477 40.4442 21.9063 41.2395 24.8243 41.2395C27.7424 41.2395 30.601 40.4442 33.0949 38.945ZM24.8243 25.452L27.0198 24.3186C27.9731 23.8264 28.7333 23.0283 29.1786 22.0522C29.6238 21.0761 29.7282 19.9788 29.475 18.9363C29.2218 17.8938 28.6256 16.9666 27.7822 16.3036C26.9388 15.6405 25.8971 15.2801 24.8243 15.2801C23.7515 15.2801 22.7098 15.6405 21.8664 16.3036C21.0231 16.9666 20.4269 17.8938 20.1737 18.9363C19.9205 19.9788 20.0248 21.0761 20.4701 22.0522C20.9153 23.0283 21.6756 23.8264 22.6289 24.3186L24.8243 25.452Z" fill="black"/>
</svg>
