<svg width="24" height="24" viewBox="0 0 24 24" fill="none" xmlns="http://www.w3.org/2000/svg">
<path d="M7.61136 11.8999C7.61136 9.40644 9.62092 7.38559 12.1004 7.38559C14.58 7.38559 16.5895 9.40644 16.5895 11.8999C16.5895 14.3933 14.58 16.4142 12.1004 16.4142C9.62092 16.4142 7.61136 14.3933 7.61136 11.8999ZM12.1004 14.7213C13.6506 14.7213 14.9061 13.4587 14.9061 11.8999C14.9061 10.341 13.6506 9.07845 12.1004 9.07845C12.0759 9.07845 12.0548 9.07845 11.9987 9.07845C12.0759 9.25832 12.1004 9.44876 12.1004 9.64274C12.1004 10.8877 11.0939 11.8999 9.8559 11.8999C9.66301 11.8999 9.47363 11.8752 9.29476 11.7976C9.29476 11.854 9.29476 11.8752 9.29476 11.8681C9.29476 13.4587 10.5503 14.7213 12.1004 14.7213ZM5.34648 6.84247C6.99762 5.29915 9.26671 3.99988 12.1004 3.99988C14.9342 3.99988 17.2033 5.29915 18.8551 6.84247C20.4964 8.37309 21.5942 10.1753 22.1132 11.4661C22.2289 11.7447 22.2289 12.0551 22.1132 12.3337C21.5942 13.5927 20.4964 15.3949 18.8551 16.9573C17.2033 18.502 14.9342 19.7999 12.1004 19.7999C9.26671 19.7999 6.99762 18.502 5.34648 16.9573C3.70515 15.3949 2.60813 13.5927 2.08631 12.3337C1.97123 12.0551 1.97123 11.7447 2.08631 11.4661C2.60813 10.1753 3.70515 8.37309 5.34648 6.84247ZM12.1004 5.69273C9.81382 5.69273 7.93401 6.73666 6.49259 8.08037C5.14236 9.34296 4.21018 10.8101 3.73391 11.8999C4.21018 12.9579 5.14236 14.4568 6.49259 15.7194C7.93401 17.0631 9.81382 18.107 12.1004 18.107C14.3871 18.107 16.2669 17.0631 17.7083 15.7194C19.0585 14.4568 19.9598 12.9579 20.4684 11.8999C19.9598 10.8101 19.0585 9.34296 17.7083 8.08037C16.2669 6.73666 14.3871 5.69273 12.1004 5.69273Z" fill="black"/>
</svg>
