<svg width="24" height="24" viewBox="0 0 24 24" fill="none" xmlns="http://www.w3.org/2000/svg">
<path d="M6.17484 6.16131C7.72533 4.94843 9.71331 4.02488 12.1003 4.02488C14.9283 4.02488 17.1927 5.32003 18.8412 6.85845C20.4792 8.38421 21.5747 10.1807 22.0927 11.4674C22.2082 11.7451 22.2082 12.0545 22.0927 12.3322C21.6237 13.4678 20.6822 15.0673 19.2962 16.4947L22.9782 19.3915C23.3422 19.6798 23.4087 20.2106 23.1217 20.5763C22.8347 20.9419 22.3062 21.0087 21.9422 20.7204L1.22224 4.40773C0.857125 4.12016 0.79311 3.59001 1.0793 3.22319C1.36553 2.85644 1.89333 2.79214 2.25872 3.07961L6.17484 6.16131ZM7.54333 7.24165L9.15331 8.50726C9.94081 7.8182 10.9733 7.39985 12.1003 7.39985C14.5748 7.39985 16.5803 9.41428 16.5803 11.8998C16.5803 12.6451 16.4018 13.3447 16.0833 13.9635L17.9662 15.447C19.1387 14.2482 20.0067 12.8525 20.4512 11.8998C19.9437 10.8135 19.0442 9.351 17.6967 8.09242C16.2583 6.75298 14.3823 5.68073 12.1003 5.68073C10.3328 5.68073 8.77882 6.33568 7.54333 7.24165ZM14.7218 12.8912C14.8373 12.5818 14.9003 12.2478 14.9003 11.8682C14.9003 10.3459 13.6473 9.05569 12.1003 9.05569C12.0758 9.05569 12.0548 9.08733 11.9988 9.08733C12.0758 9.26663 12.1003 9.45647 12.1003 9.61818C12.1003 10.0084 12.0163 10.3459 11.8693 10.6447L14.7218 12.8912ZM15.0508 17.472L16.5173 18.6322C15.2468 19.3212 13.7733 19.7747 12.1003 19.7747C9.27231 19.7747 7.00783 18.481 5.35935 16.9412C3.72206 15.3837 2.62727 13.5873 2.10647 12.3322C1.99168 12.0545 1.99168 11.7451 2.10647 11.4674C2.44037 10.6623 3.01052 9.6217 3.80851 8.57757L5.12835 9.6217C4.47385 10.4408 4.04196 11.2529 3.75111 11.8682C4.22606 12.9545 5.15635 14.4486 6.50384 15.7072C7.94232 17.0466 9.81831 18.0872 12.1003 18.0872C13.1748 18.0872 14.1583 17.8552 15.0508 17.472ZM7.62033 11.8682C7.62033 11.7978 7.62383 11.6994 7.63083 11.601L9.59431 13.1549C9.96181 13.8967 10.6478 14.4521 11.4703 14.6103L13.4373 16.1958C13.0138 16.2978 12.5658 16.3998 12.0688 16.3998C9.62581 16.3998 7.58883 14.3853 7.58883 11.8682H7.62033Z" fill="black"/>
</svg>
