<svg width="16" height="16" viewBox="0 0 16 16" fill="none" xmlns="http://www.w3.org/2000/svg">
<path fill-rule="evenodd" clip-rule="evenodd" d="M8.00141 2.75C9.10645 2.75001 10.1759 2.86133 11.3161 4.02512L12.3876 2.97534C10.8409 1.39674 9.28825 1.25 8.00131 1.25V1.25049C4.28275 1.25054 1.26642 4.2571 1.25055 7.97194C1.25018 7.98157 1.25 7.99124 1.25 8.00096C1.25 9.9528 2.07833 11.7112 3.40263 12.9437C3.42239 12.9621 3.44226 12.9804 3.46224 12.9986C4.66112 14.0882 6.25371 14.7523 8.00141 14.7523V14.7519C11.7296 14.7516 14.7518 11.7292 14.7518 8.00096C14.7518 7.58675 14.4161 7.25096 14.0018 7.25096C13.5876 7.25096 13.2518 7.58675 13.2518 8.00096C13.2518 10.901 10.9009 13.2519 8.00092 13.2519C6.64178 13.2519 5.40325 12.7355 4.47081 11.8882C4.44932 11.8687 4.428 11.849 4.40684 11.8291C3.38728 10.8713 2.75049 9.51071 2.75049 8.00141C2.75049 5.1014 5.10141 2.75049 8.00141 2.75049V2.75Z" fill="black"/>
<path d="M9.89844 3.89795L12.1486 3.89795L12.1486 1.64775" stroke="black" stroke-width="1.5" stroke-linecap="round" stroke-linejoin="round"/>
</svg>
