<svg width="48" height="48" viewBox="0 0 48 48" fill="none" xmlns="http://www.w3.org/2000/svg">
<path fill-rule="evenodd" clip-rule="evenodd" d="M8 25.5482C9.10457 25.5482 10 26.4436 10 27.5482V33.5482H38V27.5482C38 26.4436 38.8954 25.5482 40 25.5482C41.1046 25.5482 42 26.4436 42 27.5482V35.5482C42 36.6528 41.1046 37.5482 40 37.5482H8C6.89543 37.5482 6 36.6528 6 35.5482V27.5482C6 26.4436 6.89543 25.5482 8 25.5482Z" fill="black"/>
<path fill-rule="evenodd" clip-rule="evenodd" d="M23.9479 28.622C22.8433 28.622 21.9479 27.7266 21.9479 26.622V12.4799C21.9479 11.3753 22.8433 10.4799 23.9479 10.4799C25.0524 10.4799 25.9479 11.3753 25.9479 12.4799V26.622C25.9479 27.7266 25.0524 28.622 23.9479 28.622Z" fill="black"/>
<path fill-rule="evenodd" clip-rule="evenodd" d="M16.9889 20.4918C17.77 19.7108 19.0363 19.7108 19.8174 20.4918L24.06 24.7344L28.3026 20.4918C29.0837 19.7108 30.35 19.7108 31.1311 20.4918C31.9121 21.2728 31.9121 22.5392 31.1311 23.3202L25.4742 28.9771C24.6932 29.7581 23.4268 29.7581 22.6458 28.9771L16.9889 23.3202C16.2079 22.5392 16.2079 21.2728 16.9889 20.4918Z" fill="black"/>
</svg>
