<svg width="48" height="48" viewBox="0 0 48 48" fill="none" xmlns="http://www.w3.org/2000/svg">
<path fill-rule="evenodd" clip-rule="evenodd" d="M30.2171 19.1085C30.2171 25.2436 25.2436 30.2171 19.1085 30.2171C12.9735 30.2171 8 25.2436 8 19.1085C8 12.9735 12.9735 8 19.1085 8C25.2436 8 30.2171 12.9735 30.2171 19.1085ZM34.2171 19.1085C34.2171 27.4527 27.4527 34.2171 19.1085 34.2171C10.7643 34.2171 4 27.4527 4 19.1085C4 10.7643 10.7643 4 19.1085 4C27.4527 4 34.2171 10.7643 34.2171 19.1085ZM34.1368 29.8513L30.1881 33.8001L42.3643 45.9763C44.5451 43.7954 44.5451 40.2597 42.3643 38.0788L34.1368 29.8513Z" fill="black"/>
</svg>
