<svg width="48" height="48" viewBox="0 0 48 48" fill="none" xmlns="http://www.w3.org/2000/svg">
<path fill-rule="evenodd" clip-rule="evenodd" d="M31.855 4.52979C31.855 3.42522 32.7504 2.52979 33.855 2.52979L43.4801 2.52979C44.5847 2.52979 45.4801 3.42522 45.4801 4.52979V14.1549C45.4801 15.2595 44.5847 16.1549 43.4801 16.1549C42.3755 16.1549 41.4801 15.2595 41.4801 14.1549V9.35834L24.0153 26.8232C23.2342 27.6042 21.9679 27.6042 21.1868 26.8232C20.4058 26.0421 20.4058 24.7758 21.1868 23.9947L38.6518 6.52979L33.855 6.52979C32.7504 6.52979 31.855 5.63435 31.855 4.52979ZM2 10C2 7.79086 3.79086 6 6 6H24.8421C25.9467 6 26.8421 6.89543 26.8421 8C26.8421 9.10457 25.9467 10 24.8421 10H6V42H38V23.6923C38 22.5877 38.8954 21.6923 40 21.6923C41.1046 21.6923 42 22.5877 42 23.6923V42C42 44.2091 40.2091 46 38 46H6C3.79086 46 2 44.2091 2 42V10Z" fill="black"/>
</svg>
