<svg width="24" height="24" viewBox="0 0 24 24" fill="none" xmlns="http://www.w3.org/2000/svg">
<path d="M11.9996 13C12.5644 13 13.0217 12.5294 12.9992 11.9606C12.9793 11.4409 12.5577 11.0207 12.0394 11.0008C11.4693 10.9783 11 11.4356 11 12.0004C10.9987 12.5519 11.4481 13 11.9996 13Z" fill="black"/>
<path d="M11.9996 13C12.5644 13 13.0217 12.5294 12.9992 11.9606C12.9793 11.4409 12.5577 11.0207 12.0394 11.0008C11.4693 10.9783 11 11.4356 11 12.0004C10.9987 12.5519 11.4481 13 11.9996 13Z" fill="black"/>
<path d="M11.9984 16C14.2575 16 16.087 14.1175 15.9968 11.8425C15.9173 9.76376 14.2309 8.08274 12.1575 8.00319C9.87725 7.91305 8.00001 9.74255 8.00001 12.0016C7.99471 14.2076 9.7924 16 11.9984 16Z" stroke="black" stroke-width="2" stroke-miterlimit="10" stroke-linecap="round" stroke-linejoin="round"/>
<path d="M13.3731 3.92179C14.6038 4.12186 15.7436 4.61291 16.7257 5.30403L17.435 4.60685C17.8048 4.2431 18.3989 4.2431 18.7687 4.61291L19.381 5.22522C19.7508 5.59503 19.7508 6.20127 19.375 6.57108L18.6717 7.25614C19.3871 8.24432 19.8539 9.37799 20.0782 10.6087H21.0543C21.5756 10.6087 22 11.033 22 11.5544V12.4274C22 12.9488 21.5756 13.3731 21.0543 13.3731H20.0782C19.8539 14.6038 19.3871 15.7436 18.6717 16.7257L19.3871 17.441C19.7569 17.8109 19.7569 18.411 19.3871 18.7808L18.7748 19.3931C18.405 19.763 17.8048 19.763 17.435 19.3931L16.7257 18.6717C15.7375 19.3871 14.6038 19.8539 13.3731 20.0782V21.0543C13.3731 21.5756 12.9488 22 12.4274 22H11.5544C11.033 22 10.6087 21.5756 10.6087 21.0543V20.0782C9.37799 19.8539 8.23825 19.3871 7.25614 18.6717L6.57108 19.3689C6.20127 19.7448 5.60109 19.7448 5.22522 19.375L4.61291 18.7627C4.2431 18.3928 4.2431 17.7987 4.60685 17.4289L5.30403 16.7135C4.61291 15.7254 4.12186 14.5917 3.92179 13.361H2.94574C2.42437 13.361 2 12.9366 2 12.4153V11.5423C2 11.0209 2.42437 10.5965 2.94574 10.5965H3.92179C4.12186 9.36587 4.61291 8.22613 5.30403 7.24401L4.61898 6.56502C4.24917 6.19521 4.24917 5.59503 4.61898 5.22522L5.23128 4.61291C5.60109 4.2431 6.20127 4.2431 6.57108 4.61291L7.25614 5.29797C8.24432 4.60685 9.37799 4.11579 10.6087 3.91573V2.94574C10.6087 2.42437 11.033 2 11.5544 2H12.4274C12.9488 2 13.3731 2.42437 13.3731 2.94574V3.92179Z" stroke="black" stroke-width="2" stroke-miterlimit="10" stroke-linecap="round" stroke-linejoin="round"/>
</svg>
