<svg width="48" height="48" viewBox="0 0 48 48" fill="none" xmlns="http://www.w3.org/2000/svg">
<path fill-rule="evenodd" clip-rule="evenodd" d="M24 41C33.3888 41 41 33.3888 41 24C41 14.6112 33.3888 7 24 7C14.6112 7 7 14.6112 7 24C7 33.3888 14.6112 41 24 41ZM24 45C35.598 45 45 35.598 45 24C45 12.402 35.598 3 24 3C12.402 3 3 12.402 3 24C3 35.598 12.402 45 24 45Z" fill="#2AF6FF"/>
<path fill-rule="evenodd" clip-rule="evenodd" d="M35.6966 14.8974C36.5816 15.5583 36.7634 16.8115 36.1026 17.6966L25.5649 31.8095C24.5017 33.2335 22.4407 33.4263 21.1318 32.2243L12.1472 23.9731C11.3336 23.2259 11.2798 21.9607 12.0269 21.1472C12.7741 20.3336 14.0393 20.2798 14.8528 21.0269L23.0221 28.5293L32.8974 15.3034C33.5583 14.4184 34.8115 14.2366 35.6966 14.8974Z" fill="#2AF6FF"/>
</svg>
