<svg width="48" height="48" viewBox="0 0 48 48" fill="none" xmlns="http://www.w3.org/2000/svg">
<path d="M45.75 2.11816H2.25C1.00736 2.11816 0 3.12552 0 4.36816C0 5.6108 1.00736 6.61816 2.25 6.61816H45.75C46.9926 6.61816 48 5.6108 48 4.36816C48 3.12552 46.9926 2.11816 45.75 2.11816Z" fill="black"/>
<path fill-rule="evenodd" clip-rule="evenodd" d="M6.05763 3.72846C7.14821 3.55321 8.17436 4.29523 8.34961 5.38581L14.3462 42.7031H33.6537L39.6503 5.38581C39.8255 4.29523 40.8517 3.55321 41.9423 3.72846C43.0328 3.9037 43.7749 4.92986 43.5996 6.02044L37.3326 45.0204C37.1768 45.9901 36.3401 46.7031 35.358 46.7031H12.6419C11.6598 46.7031 10.8231 45.9901 10.6672 45.0204L4.40027 6.02044C4.22502 4.92986 4.96705 3.9037 6.05763 3.72846Z" fill="black"/>
<path fill-rule="evenodd" clip-rule="evenodd" d="M16 44V4H20V44H16Z" fill="black"/>
<path fill-rule="evenodd" clip-rule="evenodd" d="M22 44V4H26V44H22Z" fill="black"/>
<path fill-rule="evenodd" clip-rule="evenodd" d="M28 44V4H32V44H28Z" fill="black"/>
</svg>
