<svg width="48" height="48" viewBox="0 0 48 48" fill="none" xmlns="http://www.w3.org/2000/svg">
<path fill-rule="evenodd" clip-rule="evenodd" d="M8 25.5482C9.10457 25.5482 10 26.4436 10 27.5482V33.5482H38V27.5482C38 26.4436 38.8954 25.5482 40 25.5482C41.1046 25.5482 42 26.4436 42 27.5482V35.5482C42 36.6528 41.1046 37.5482 40 37.5482H8C6.89543 37.5482 6 36.6528 6 35.5482L6 27.5482C6 26.4436 6.89543 25.5482 8 25.5482Z" fill="black"/>
<path fill-rule="evenodd" clip-rule="evenodd" d="M24.06 11.4207C25.1646 11.4207 26.06 12.3162 26.06 13.4207V27.5629C26.06 28.6674 25.1646 29.5629 24.06 29.5629C22.9554 29.5629 22.06 28.6674 22.06 27.5629V13.4207C22.06 12.3162 22.9554 11.4207 24.06 11.4207Z" fill="black"/>
<path fill-rule="evenodd" clip-rule="evenodd" d="M31.0189 19.5509C30.2379 20.332 28.9716 20.332 28.1905 19.5509L23.9479 15.3083L19.7052 19.5509C18.9242 20.332 17.6579 20.332 16.8768 19.5509C16.0958 18.7699 16.0958 17.5035 16.8768 16.7225L22.5337 11.0656C23.3147 10.2846 24.581 10.2846 25.3621 11.0656L31.0189 16.7225C31.8 17.5035 31.8 18.7699 31.0189 19.5509Z" fill="black"/>
</svg>
