<svg width="48" height="48" viewBox="0 0 48 48" fill="none" xmlns="http://www.w3.org/2000/svg">
<path fill-rule="evenodd" clip-rule="evenodd" d="M24 4.00012C24.7113 4.00012 25.3691 4.37794 25.7276 4.99238L46.7276 40.9924C47.0884 41.611 47.091 42.3753 46.7343 42.9962C46.3776 43.6172 45.7161 44.0001 45 44.0001H3C2.28387 44.0001 1.62239 43.6172 1.26572 42.9962C0.909039 42.3753 0.911605 41.611 1.27244 40.9924L22.2724 4.99238C22.6309 4.37794 23.2887 4.00012 24 4.00012ZM6.48207 40.0001H41.5179L24 9.96939L6.48207 40.0001Z" fill="#FEEA51"/>
<path d="M23.9445 18.0001H23.7557C22.5922 18.0001 21.6743 18.9895 21.7613 20.1497L22.641 31.8783C22.6884 32.511 23.2156 33.0001 23.8501 33.0001C24.4846 33.0001 25.0118 32.511 25.0592 31.8783L25.9389 20.1497C26.0259 18.9895 25.108 18.0001 23.9445 18.0001Z" fill="#FEEA51"/>
<path d="M25.5 36.0001C25.5 36.8285 24.8284 37.5001 24 37.5001C23.1716 37.5001 22.5 36.8285 22.5 36.0001C22.5 35.1717 23.1716 34.5001 24 34.5001C24.8284 34.5001 25.5 35.1717 25.5 36.0001Z" fill="#FEEA51"/>
</svg>
